<?xml version="1.0" encoding="UTF-8"?>
<svg xmlns="http://www.w3.org/2000/svg" version="1.1" viewBox="0 0 113 113">
  <defs>
    <style>
      .cls-1 {
        fill: #f50b0b;
      }
    </style>
  </defs>
  <!-- Generator: Adobe Illustrator 28.7.5, SVG Export Plug-In . SVG Version: 1.2.0 Build 176)  -->
  <g>
    <g id="Layer_1">
      <path class="cls-1" d="M105.9,38.1l-11.8,6.5-11.8,11.2v38.4h16.5c3.9,0,7.1-3.2,7.1-7.1v-49Z"/>
      <path class="cls-1" d="M7.1,38.1l8.5,4,15,13.6v38.4H14.1c-3.9,0-7.1-3.2-7.1-7.1v-49Z"/>
      <path class="cls-1" d="M82.4,26.4l-25.9,19.4-25.9-19.4-2.4,13.7,2.4,15.8,25.9,19.4,25.9-19.4,2.4-15.8-2.4-13.7Z"/>
      <path class="cls-1" d="M7.1,29v9.2l23.5,17.7v-29.4l-7.4-5.5c-1.8-1.3-3.9-2-6.1-2-5.6,0-10.1,4.5-10.1,10.1Z"/>
      <path class="cls-1" d="M105.9,29v9.2l-23.5,17.7v-29.4l7.4-5.5c1.8-1.3,3.9-2,6.1-2,5.6,0,10.1,4.5,10.1,10.1Z"/>
    </g>
  </g>
</svg>