<svg width="113" height="113" viewBox="0 0 113 113" fill="none" xmlns="http://www.w3.org/2000/svg">
<path d="M105.937 38.1375L94.1666 44.6115L82.3958 55.7938V94.1667H98.875C102.776 94.1667 105.937 91.005 105.937 87.1042V38.1375Z" fill="#010101"/>
<path d="M7.0625 38.1375L15.5705 42.1631L30.6042 55.7938V94.1667H14.125C10.2241 94.1667 7.0625 91.005 7.0625 87.1042V38.1375Z" fill="#010101"/>
<path d="M82.3958 26.3666L56.5 45.7885L30.6042 26.3666L28.25 40.0208L30.6042 55.7937L56.5 75.2156L82.3958 55.7937L84.75 40.0208L82.3958 26.3666Z" fill="#010101"/>
<path d="M7.0625 28.9515V38.1375L30.6042 55.7937V26.3666L23.2498 20.8555C21.4983 19.5419 19.3701 18.8333 17.1807 18.8333C11.5919 18.8333 7.0625 23.3627 7.0625 28.9515Z" fill="#010101"/>
<path d="M105.937 28.9515V38.1375L82.3958 55.7937V26.3666L89.7502 20.8555C91.5017 19.5419 93.6299 18.8333 95.8193 18.8333C101.408 18.8333 105.937 23.3627 105.937 28.9515Z" fill="#010101"/>
</svg>
