<?xml version="1.0" encoding="UTF-8"?>
<svg xmlns="http://www.w3.org/2000/svg" version="1.1" viewBox="0 0 116 116">
  <defs>
    <style>
      .cls-1 {
        fill: #f50b0b;
      }
    </style>
  </defs>
  <!-- Generator: Adobe Illustrator 28.7.5, SVG Export Plug-In . SVG Version: 1.2.0 Build 176)  -->
  <g>
    <g id="Layer_1">
      <path class="cls-1" d="M57.7,34.2c-14.3,0-26.2,11.7-26.2,26.2s11.7,26.2,26.2,26.2,26.2-11.9,26.2-26.2-11.9-26.2-26.2-26.2ZM57.7,77.1c-9.2,0-16.8-7.6-16.8-16.8s7.6-16.8,16.8-16.8,16.8,7.6,16.8,16.8-7.6,16.8-16.8,16.8Z"/>
      <path class="cls-1" d="M84.9,39.5c3.3,0,5.9-2.7,5.9-5.9s-2.7-5.9-5.9-5.9-5.9,2.7-5.9,5.9,2.7,5.9,5.9,5.9Z"/>
      <path class="cls-1" d="M100.2,18.2c-5.3-5.5-12.9-8.4-21.5-8.4h-42.1c-17.8,0-29.7,11.9-29.7,29.7v41.9c0,8.8,2.9,16.4,8.6,21.9,5.5,5.3,12.9,8,21.3,8h41.7c8.8,0,16.2-2.9,21.5-8,5.5-5.3,8.4-12.9,8.4-21.7v-42.1c0-8.6-2.9-16-8.2-21.3ZM99.4,81.6c0,6.3-2.3,11.5-5.9,14.9-3.7,3.5-8.8,5.3-14.9,5.3h-41.7c-6.1,0-11.3-1.8-14.9-5.3-3.7-3.7-5.5-8.8-5.5-15.1v-41.9c0-6.1,1.8-11.3,5.5-14.9,3.5-3.5,8.8-5.3,14.9-5.3h42.1c6.1,0,11.3,1.8,14.9,5.5,3.5,3.7,5.5,8.8,5.5,14.7v42.1Z"/>
    </g>
  </g>
</svg>