<svg width="98" height="98" viewBox="0 0 98 98" fill="none" xmlns="http://www.w3.org/2000/svg">
<path d="M80.7878 5.56348H14.5169C11.0739 5.56348 7.77177 6.93122 5.33717 9.36583C2.90255 11.8005 1.53479 15.1025 1.53479 18.5456V84.8167C1.53479 88.26 2.90255 91.562 5.33717 93.9964C7.77177 96.4309 11.0739 97.7988 14.5169 97.7988H80.7878C84.231 97.7988 87.533 96.4309 89.9675 93.9964C92.4025 91.562 93.7699 88.26 93.7699 84.8167V18.5456C93.7699 15.1025 92.4025 11.8005 89.9675 9.36583C87.533 6.93122 84.231 5.56348 80.7878 5.56348ZM32.2838 79.2595C32.2838 79.4901 32.1281 79.836 31.8226 80.303C31.3614 80.6143 31.0098 80.7641 30.7792 80.7641H20.1145C19.8839 80.7641 19.538 80.6143 19.0768 80.303C18.7655 79.8418 18.6099 79.4959 18.6099 79.2595V41.8235C18.6099 41.5929 18.7655 41.247 19.0711 40.7858C19.5322 40.4745 19.8781 40.3189 20.1145 40.3189H30.7792C31.0098 40.3189 31.3556 40.4745 31.8168 40.7801C32.1281 41.2413 32.2838 41.5871 32.2838 41.8235V79.2595ZM30.5486 33.9431C29.8858 34.6209 29.0912 35.1558 28.2137 35.5147C27.3363 35.8736 26.3946 36.049 25.4468 36.03C23.4349 36.03 21.7401 35.3382 20.3451 33.9431C19.667 33.2805 19.1319 32.486 18.773 31.6085C18.414 30.731 18.2389 29.7892 18.2582 28.8414C18.2582 26.9102 18.9558 25.25 20.3451 23.8607C21.0004 23.1652 21.791 22.611 22.6683 22.2323C23.5457 21.8535 24.4912 21.6581 25.4468 21.6581C26.4024 21.6581 27.3479 21.8535 28.2252 22.2323C29.1026 22.611 29.8932 23.1652 30.5486 23.8607C31.9321 25.2442 32.6296 26.916 32.6296 28.8414C32.6296 30.8533 31.9379 32.5538 30.5486 33.9431ZM77.5999 79.2595C77.5981 79.4555 77.5566 79.6492 77.4771 79.8285C77.3981 80.0084 77.2828 80.1698 77.1387 80.303C77.0055 80.4465 76.8441 80.5618 76.6648 80.6413C76.4856 80.7203 76.2919 80.7624 76.0953 80.7641H65.2C64.9694 80.7641 64.6235 80.6143 64.1623 80.303C63.8511 79.8418 63.6954 79.4959 63.6954 79.2595V56.4313C63.6954 54.4943 63.3495 52.9897 62.652 51.906C61.7988 50.9836 60.4095 50.5224 58.4784 50.5224C56.0055 50.5224 54.23 51.2488 53.1462 52.7188C52.1432 54.1888 51.6416 56.2756 51.6416 58.9793V79.2595C51.6398 79.4555 51.5979 79.6492 51.5187 79.8285C51.4394 80.0084 51.3243 80.1698 51.1805 80.303C51.0464 80.4477 50.8841 80.5629 50.7037 80.6425C50.5232 80.7215 50.3284 80.763 50.1313 80.7641H39.4666C39.236 80.7641 38.8901 80.6143 38.4289 80.303C38.1176 79.8418 37.9678 79.4959 37.9678 79.2595V41.8235C37.9678 41.5929 38.1176 41.247 38.4289 40.7858C38.8901 40.4745 39.236 40.3189 39.4666 40.3189H49.7854C50.0967 40.3189 50.4022 40.3938 50.7078 40.5495C50.8691 40.6302 51.0248 40.8954 51.1747 41.3565V41.9388L51.2899 42.1694V43.0975C53.8437 40.6302 57.3602 39.3908 61.8392 39.3908C66.8602 39.3908 70.7226 40.5898 73.4262 42.9822C76.2106 45.5302 77.5999 49.2081 77.5999 53.9928V79.2595Z" fill="black"/>
</svg>
