<?xml version="1.0" encoding="UTF-8"?>
<svg xmlns="http://www.w3.org/2000/svg" version="1.1" viewBox="0 0 98 98">
  <defs>
    <style>
      .cls-1 {
        fill: #f50b0b;
      }
    </style>
  </defs>
  <!-- Generator: Adobe Illustrator 28.7.5, SVG Export Plug-In . SVG Version: 1.2.0 Build 176)  -->
  <g>
    <g id="Layer_1">
      <path class="cls-1" d="M82.6,2.3H15.4c-3.5,0-6.8,1.4-9.3,3.9-2.5,2.5-3.9,5.8-3.9,9.3v67.1c0,3.5,1.4,6.8,3.9,9.3,2.5,2.5,5.8,3.9,9.3,3.9h67.1c3.5,0,6.8-1.4,9.3-3.9,2.5-2.5,3.9-5.8,3.9-9.3V15.4c0-3.5-1.4-6.8-3.9-9.3-2.5-2.5-5.8-3.9-9.3-3.9ZM33.4,76.9c0,.2-.2.6-.5,1.1-.5.3-.8.5-1.1.5h-10.8c-.2,0-.6-.2-1.1-.5-.3-.5-.5-.8-.5-1.1v-37.9c0-.2.2-.6.5-1.1.5-.3.8-.5,1.1-.5h10.8c.2,0,.6.2,1.1.5.3.5.5.8.5,1.1v37.9ZM31.7,31c-.7.7-1.5,1.2-2.4,1.6-.9.4-1.8.5-2.8.5-2,0-3.8-.7-5.2-2.1-.7-.7-1.2-1.5-1.6-2.4-.4-.9-.5-1.8-.5-2.8,0-2,.7-3.6,2.1-5,.7-.7,1.5-1.3,2.4-1.6.9-.4,1.8-.6,2.8-.6s1.9.2,2.8.6c.9.4,1.7.9,2.4,1.6,1.4,1.4,2.1,3.1,2.1,5s-.7,3.8-2.1,5.2ZM79.3,76.9c0,.2,0,.4-.1.6,0,.2-.2.3-.3.5-.1.1-.3.3-.5.3-.2,0-.4.1-.6.1h-11c-.2,0-.6-.2-1.1-.5-.3-.5-.5-.8-.5-1.1v-23.1c0-2-.4-3.5-1.1-4.6-.9-.9-2.3-1.4-4.2-1.4s-4.3.7-5.4,2.2c-1,1.5-1.5,3.6-1.5,6.3v20.5c0,.2,0,.4-.1.6,0,.2-.2.3-.3.5-.1.1-.3.3-.5.3-.2,0-.4.1-.6.1h-10.8c-.2,0-.6-.2-1.1-.5-.3-.5-.5-.8-.5-1.1v-37.9c0-.2.2-.6.5-1.1.5-.3.8-.5,1.1-.5h10.5c.3,0,.6,0,.9.2.2,0,.3.4.5.8v.8c.1,0,.1.9.1.9,2.6-2.5,6.2-3.8,10.7-3.8s9,1.2,11.7,3.6c2.8,2.6,4.2,6.3,4.2,11.2v25.6Z"/>
    </g>
  </g>
</svg>